<?xml version="1.0" standalone="no"?>
<!DOCTYPE svg PUBLIC "-//W3C//DTD SVG 20010904//EN"
 "http://www.w3.org/TR/2001/REC-SVG-20010904/DTD/svg10.dtd">
<svg version="1.0" xmlns="http://www.w3.org/2000/svg"
 width="300.000000pt" height="300.000000pt" viewBox="0 0 300.000000 300.000000"
 preserveAspectRatio="xMidYMid meet">

<g transform="translate(0.000000,300.000000) scale(0.100000,-0.100000)"
fill="#000000" stroke="none">
<path d="M167 2856 c-94 -34 -167 -139 -167 -243 0 -71 47 -164 101 -200 83
-55 29 -53 1395 -53 875 0 1279 3 1314 11 59 13 123 57 162 114 24 36 27 49
28 123 0 62 -5 92 -19 120 -26 50 -76 96 -131 121 -45 20 -59 21 -1345 20
-1060 0 -1307 -2 -1338 -13z"/>
<path d="M155 1731 c-134 -61 -192 -211 -130 -338 29 -62 65 -98 125 -127 l45
-21 1305 0 1305 0 50 23 c61 28 80 45 117 101 25 40 28 54 28 123 0 59 -5 89
-20 117 -25 51 -99 114 -148 129 -29 9 -371 12 -1338 12 -1236 0 -1301 -1
-1339 -19z"/>
<path d="M188 619 c-150 -35 -230 -207 -163 -346 27 -58 56 -90 112 -124 l38
-24 1325 0 1325 0 40 22 c45 24 83 62 114 113 29 48 30 174 2 228 -25 48 -76
96 -126 119 -38 17 -111 18 -1335 20 -731 0 -1311 -3 -1332 -8z"/>
</g>
</svg>
